<svg xmlns="http://www.w3.org/2000/svg" width="138" height="23"><path fill="#FFF" d="M132.54 3.06v18.9h-2.7V3.06h-4.8V.96h12.3v2.1h-4.8zm-10.4 11.11c-.47.6-1.06 1.01-1.77 1.26s-1.55.38-2.53.38a15.32 15.32 0 0 1-3-.3v6.45h-2.7V1.26a14 14 0 0 1 2.3-.47c.76-.09 1.6-.13 2.5-.13 1.2 0 2.22.12 3.06.37.84.25 1.52.67 2.04 1.25s.9 1.35 1.14 2.3a15 15 0 0 1 .36 3.58c0 1.46-.12 2.68-.35 3.66a5.9 5.9 0 0 1-1.05 2.35zm-1.53-8.71a4.22 4.22 0 0 0-.7-1.71 2.55 2.55 0 0 0-1.22-.89 5.37 5.37 0 0 0-1.75-.25h-2.1v11.1h2.1c.68 0 1.26-.09 1.75-.26a2.55 2.55 0 0 0 1.22-.88c.32-.42.55-1 .7-1.71.15-.72.23-1.62.23-2.7s-.08-1.98-.23-2.7zm-15.22 11.1h-6l-1.35 5.4h-2.7l5.1-21h3.9l5.1 21h-2.7l-1.35-5.4zm-2.94-12.6h-.12l-2.5 10.5h5.1l-2.48-10.5zm-12.96 2.4h-.15l-4.35 12.9h-2.7l-4.35-12.9h-.15l-.9 15.6h-2.7l1.2-21h3.3l4.89 14.4h.12L88.59.96h3.3l1.2 21h-2.7l-.9-15.6zM69.33 20a4.72 4.72 0 0 1-2.03 1.74c-.79.34-1.7.5-2.71.5a6.82 6.82 0 0 1-2.72-.5A4.71 4.71 0 0 1 59.85 20a9.22 9.22 0 0 1-1.28-3.32 26.26 26.26 0 0 1-.43-5.23c0-2.1.14-3.85.43-5.24a9.3 9.3 0 0 1 1.28-3.31 4.71 4.71 0 0 1 2.02-1.74c.8-.34 1.7-.51 2.72-.51 1.02 0 1.92.17 2.71.5.8.35 1.47.93 2.03 1.75s.98 1.92 1.27 3.31c.3 1.4.44 3.14.44 5.24s-.15 3.84-.44 5.23A9.22 9.22 0 0 1 69.33 20zm-1.3-13a10.51 10.51 0 0 0-.83-2.75 3.18 3.18 0 0 0-1.2-1.4 2.83 2.83 0 0 0-1.41-.4c-.48 0-.95.14-1.41.4a3.2 3.2 0 0 0-1.2 1.4c-.34.69-.62 1.6-.83 2.77a25.7 25.7 0 0 0-.31 4.44c0 1.8.1 3.28.31 4.44.21 1.16.49 2.08.83 2.76a3.1 3.1 0 0 0 1.2 1.4c.46.27.93.4 1.4.4.49 0 .96-.13 1.42-.4a3.1 3.1 0 0 0 1.2-1.4c.34-.68.61-1.6.82-2.76.21-1.16.32-2.64.32-4.44 0-1.8-.1-3.28-.32-4.44zm-16.2 5.35h-6.3v9.6h-2.7v-21h2.7v9.3h6.3V.96h2.7v21h-2.7v-9.6zm-14.24 9.6l-3.75-9-3.75 9h-2.7l4.5-10.8L27.84.96h2.7l3.3 8.4 3.3-8.4h2.7l-4.05 10.2 4.5 10.8h-2.7zM15.54.96h10.2v2.1h-7.5v6.9h6.6v2.1h-6.6v7.8h7.5v2.1h-10.2v-21zm-7.2 21h-2.7V3.06H.84V.96h12.3v2.1h-4.8v18.9z"/></svg>